<?xml version="1.0" encoding="UTF-8"?>
<svg version="1.1" xmlns="http://www.w3.org/2000/svg" width="400" height="353">
<path d="M0 0 C0.75312023 -0.00453111 1.50624046 -0.00906223 2.28218251 -0.01373065 C4.78367004 -0.02630194 7.28493781 -0.02475901 9.78645325 -0.02310181 C11.58918027 -0.02909169 13.39190473 -0.03589829 15.19462585 -0.04345703 C20.07711449 -0.06107941 24.95953295 -0.06581088 29.84205031 -0.0670886 C32.8975794 -0.06851312 35.95309081 -0.07278846 39.00861549 -0.07808304 C49.68310803 -0.09657229 60.3575507 -0.10475521 71.03205872 -0.10317993 C80.95794051 -0.10197948 90.88360453 -0.12306573 100.80943125 -0.15466726 C109.35071204 -0.18088463 117.89192194 -0.19154491 126.43324262 -0.19026911 C131.52587728 -0.189761 136.61831838 -0.19536032 141.7109127 -0.21662521 C146.50533171 -0.23609929 151.29937434 -0.23606979 156.09380722 -0.22159195 C157.84443402 -0.21951394 159.59508496 -0.22414398 161.3456707 -0.23631287 C178.23036862 -0.34599672 191.21045914 2.7282385 203.85212708 14.51742554 C215.3787078 26.52595389 216.55429842 41.56681025 216.50617981 57.39022827 C216.51189227 59.0965011 216.5188599 60.80277012 216.52697754 62.5090332 C216.54482669 67.1144683 216.54375625 71.71971202 216.53803515 76.32517123 C216.53493152 80.18183529 216.54104872 84.03846321 216.5470739 87.89512211 C216.56109027 96.99882777 216.55958177 106.10243954 216.548172 115.20614624 C216.53669174 124.57261094 216.55077151 133.93878927 216.57756847 143.30521625 C216.59977569 151.37182128 216.60635161 159.43833673 216.60049206 167.50497013 C216.59713351 172.31191533 216.599464 177.11867699 216.61674309 181.92559624 C216.63229064 186.44757955 216.62817075 190.96914082 216.60943794 195.49110794 C216.60577367 197.14217235 216.60879681 198.79326859 216.61932373 200.44430351 C216.7165004 216.95715726 212.76659027 230.01631021 201.53962708 242.51742554 C188.97815491 254.39461517 173.34647349 255.5693334 157.02278137 255.54208374 C155.29710165 255.54643642 153.57142386 255.55162141 151.8457489 255.55757141 C147.17824767 255.57091394 142.51082765 255.5715453 137.84331107 255.56900811 C133.93704801 255.56793502 130.03080115 255.57283049 126.12454158 255.57761353 C116.90294631 255.58869265 107.68139179 255.58915533 98.45979309 255.58309937 C88.96958815 255.57706248 79.47953157 255.58936704 69.98935193 255.61066943 C61.82088808 255.6283259 53.65247128 255.63428036 45.48398906 255.63103169 C40.61444455 255.62922489 35.74500585 255.63179442 30.87547874 255.64574623 C26.29285285 255.65838569 21.71045697 255.656323 17.12783432 255.64333534 C15.45419421 255.64098315 13.7805376 255.64365507 12.10691643 255.65195847 C-4.48141427 255.72826921 -19.27716442 253.31207245 -31.79240417 241.57211304 C-37.46791638 235.35958576 -41.37507351 228.25629035 -43.89787292 220.26742554 C-44.08304065 219.68236237 -44.26820837 219.09729919 -44.45898724 218.49450684 C-45.08120101 215.33714559 -45.03447276 212.28921378 -45.04504395 209.07162476 C-45.04872063 208.34571797 -45.05239732 207.61981119 -45.05618542 206.87190723 C-45.0672013 204.43863532 -45.07106259 202.00540614 -45.07487488 199.57211304 C-45.08114129 197.8274675 -45.08778825 196.08282329 -45.0947876 194.33818054 C-45.11581556 188.60627164 -45.12619127 182.87436251 -45.13615417 177.14242554 C-45.14020271 175.16648342 -45.14431966 173.19054144 -45.14850426 171.21459961 C-45.16755599 161.92730879 -45.18178503 152.64002591 -45.19011623 143.35271931 C-45.19987808 132.64829 -45.22617021 121.94406805 -45.26661712 111.23971176 C-45.29683538 102.95670781 -45.31159066 94.67376309 -45.31489724 86.39070511 C-45.3172419 81.4483749 -45.3261257 76.50626621 -45.35135841 71.56399536 C-45.37474311 66.90835707 -45.3788308 62.25308451 -45.36859703 57.59740257 C-45.36810402 55.89634162 -45.37435456 54.19526203 -45.38815308 52.49425697 C-45.4984143 38.0858848 -43.18505455 25.78353075 -33.89787292 14.26742554 C-24.2165078 4.87034193 -13.54758686 -0.06101843 0 0 Z M3.10212708 70.26742554 C0.61826648 73.99321642 0.72170587 75.85453956 1.10212708 80.26742554 C2.75352013 83.80612494 3.81817937 85.07812707 7.10212708 87.26742554 C9.9835378 87.57616424 9.9835378 87.57616424 13.31364441 87.53485107 C15.26528252 87.54764603 15.26528252 87.54764603 17.25634766 87.56069946 C18.70152295 87.56000041 20.14669815 87.55907734 21.59187317 87.55795288 C23.11128063 87.56393612 24.63068505 87.5707412 26.15008545 87.57830811 C30.2802933 87.59599653 34.41041832 87.60066469 38.54066038 87.60193968 C41.98749883 87.60383766 45.43431793 87.61119405 48.88114893 87.61828387 C57.01308649 87.63457636 65.14497976 87.63945205 73.27693176 87.63803101 C81.66748024 87.63682944 90.05777155 87.6579321 98.44825494 87.68951833 C105.6500448 87.71566431 112.85175059 87.726399 120.05358756 87.72512019 C124.35575178 87.72461004 128.65768754 87.73032204 132.95980453 87.75147629 C137.0064285 87.77083046 141.05260541 87.77100277 145.09924507 87.75644302 C146.58393188 87.75435026 148.06864646 87.75908367 149.5532856 87.77116394 C151.58101486 87.78659375 153.60889627 87.77491961 155.63664246 87.76190186 C157.33841928 87.76353616 157.33841928 87.76353616 159.07457542 87.76520348 C162.77567989 87.15668268 164.43649567 85.85363169 167.10212708 83.26742554 C168.70519631 80.06128706 168.58953169 76.74602557 168.10212708 73.26742554 C165.93475947 69.70675019 163.95101072 67.78267389 160.10212708 66.26742554 C157.18837718 65.96127266 157.18837718 65.96127266 153.92893982 66 C152.66157486 65.99147003 151.3942099 65.98294006 150.08843994 65.97415161 C148.68626391 65.97485062 147.28408798 65.97577367 145.88191223 65.97689819 C144.40338807 65.97091301 142.92486703 65.96410749 141.4463501 65.95654297 C137.43183261 65.93887472 133.41740038 65.93418725 129.40284777 65.9329114 C126.89414489 65.93148971 124.38546369 65.9272198 121.8767662 65.92191696 C113.12309645 65.90341401 104.36948761 65.89524669 95.61579895 65.89682007 C87.45870972 65.89802157 79.30188505 65.87691829 71.14486277 65.84533274 C64.13921351 65.81917314 57.13365066 65.80845264 50.12795293 65.80973089 C45.94481759 65.81024061 41.76191737 65.80455171 37.57883072 65.78337479 C33.64381194 65.76399755 29.70925268 65.76386409 25.77421761 65.77840805 C24.33187628 65.78049791 22.88950623 65.77578458 21.44721413 65.76368713 C19.47462821 65.74821634 17.50188537 65.75994995 15.52928162 65.77294922 C14.42648172 65.77185968 13.32368183 65.77077015 12.18746376 65.7696476 C8.31791488 66.39394772 6.15482423 67.84998154 3.10212708 70.26742554 Z M1.10212708 129.26742554 C-0.37914923 133.42639361 -0.35798684 137.12924901 1.28962708 141.20492554 C4.28403038 144.61234998 6.29658953 145.21179229 10.87686157 145.52812195 C12.42559947 145.54303373 13.97446744 145.54689514 15.52326965 145.54208374 C16.79475105 145.54975014 16.79475105 145.54975014 18.09191895 145.55757141 C20.89357063 145.57146871 23.69497627 145.5705102 26.49665833 145.56820679 C28.44715466 145.57209432 30.39765014 145.57642911 32.34814453 145.58119202 C36.43779747 145.58865502 40.52736409 145.58836285 44.61701965 145.58309937 C49.84919438 145.5773119 55.08101429 145.59421791 60.31313038 145.61744404 C64.34268244 145.63220288 68.37214955 145.63305002 72.40172386 145.62993431 C74.33016855 145.63044668 76.25861809 145.63566855 78.18703651 145.64574623 C80.88918961 145.65813169 83.59065813 145.65130581 86.2928009 145.63973999 C87.08421478 145.64738373 87.87562866 145.65502747 88.69102478 145.66290283 C93.87857497 145.61401434 97.49499766 144.70003767 102.10212708 142.26742554 C104.37255424 139.55756085 105.02048483 137.8155949 105.53962708 134.32992554 C104.97850583 130.4020768 103.63570966 128.29364917 101.10212708 125.26742554 C96.98538632 123.83852675 92.68266488 124.09670447 88.37385559 124.07455444 C87.49372803 124.06637695 86.61360046 124.05819946 85.70680237 124.04977417 C82.79821955 124.02498767 79.88968517 124.00842485 76.98103333 123.99398804 C75.9869792 123.98866436 74.99292507 123.98334068 73.96874809 123.97785568 C68.71105089 123.95115835 63.4533772 123.9317692 58.19563293 123.91732788 C53.84320662 123.90396738 49.49124677 123.87607098 45.13899231 123.83529663 C39.88236765 123.78605214 34.62616732 123.76121758 29.36932182 123.7541008 C27.36661584 123.74737961 25.36391964 123.73213509 23.36134529 123.70820999 C20.56032297 123.67664443 17.76094605 123.67650815 14.95979309 123.68392944 C14.13313644 123.66752411 13.3064798 123.65111877 12.45477295 123.63421631 C6.98422573 123.69356398 4.58460236 124.72315541 1.10212708 129.26742554 Z M162.88337708 171.26742554 C160.39833071 174.05765304 157.73237669 176.64687207 155.07087708 179.26742554 C152.55042166 181.82788818 150.23108182 184.53508097 147.89118958 187.25961304 C145.37142207 190.08747438 142.66751278 192.71278513 139.96931458 195.36898804 C137.50283592 197.87674667 135.29853563 200.52191484 133.10212708 203.26742554 C127.79065692 200.61688759 124.10502153 196.41937203 120.03962708 192.20492554 C118.63689268 190.75104312 117.22950364 189.30163382 115.81697083 187.85726929 C115.19942932 187.21652466 114.58188782 186.57578003 113.94563293 185.9156189 C110.8092704 183.11154215 108.90668038 182.2527973 104.66462708 182.32992554 C100.31077835 183.4756752 98.6875452 184.58516336 96.10212708 188.26742554 C95.35844426 193.47320522 95.54066087 196.07487565 98.6287384 200.45419312 C102.02237156 204.63058308 105.90931528 208.3588031 109.72712708 212.14242554 C110.59853333 213.02156616 111.46993958 213.90070679 112.36775208 214.80648804 C113.61685364 216.05172241 113.61685364 216.05172241 114.89118958 217.32211304 C115.65125305 218.07992065 116.41131653 218.83772827 117.19441223 219.61849976 C118.93405063 221.48540132 118.93405063 221.48540132 121.10212708 221.26742554 C121.10212708 221.92742554 121.10212708 222.58742554 121.10212708 223.26742554 C124.43229344 226.68616015 128.23943896 229.64575696 133.10212708 230.07992554 C141.10764968 229.21297995 147.50115034 219.9159219 152.66462708 214.32992554 C153.35226135 213.59266235 154.03989563 212.85539917 154.74836731 212.09579468 C156.17246309 210.56877968 157.59507028 209.04037506 159.01618958 207.5105896 C161.60757717 204.72387738 164.21094928 201.94857698 166.81575012 199.17440796 C168.6590081 197.21091105 170.49985898 195.24518009 172.34040833 193.27914429 C174.97772916 190.46363551 177.62202229 187.65485379 180.27009583 184.84945679 C181.29477966 183.76193115 181.29477966 183.76193115 182.34016418 182.6524353 C183.64794683 181.26467178 184.95727082 179.87835858 186.26838684 178.4937439 C192.79232049 171.93700973 192.79232049 171.93700973 195.10212708 163.26742554 C193.89461451 159.30946769 192.95324202 156.96175615 189.72712708 154.32992554 C178.39511367 149.74315821 169.40783175 163.67533282 162.88337708 171.26742554 Z M1.28962708 183.01742554 C-0.46886022 186.3492962 -0.41049779 188.55089526 0.10212708 192.26742554 C2.12580603 195.74102006 4.21229531 197.97081495 8.10212708 199.26742554 C9.71153541 199.36930518 11.32475283 199.4158069 12.93733215 199.42855835 C13.91877701 199.43816589 14.90022186 199.44777344 15.91140747 199.45767212 C17.50048164 199.46404694 17.50048164 199.46404694 19.12165833 199.47055054 C20.21298569 199.47625061 21.30431305 199.48195068 22.42871094 199.48782349 C24.73951752 199.49727417 27.05033758 199.50380774 29.36116028 199.50765991 C32.89029055 199.51735866 36.4188368 199.54837926 39.9478302 199.57992554 C42.19326945 199.58645638 44.43871287 199.59170653 46.68415833 199.59555054 C47.73746841 199.60789734 48.7907785 199.62024414 49.87600708 199.63296509 C55.36223558 199.61634919 59.39257432 199.42942226 64.10212708 196.26742554 C66.49562778 193.11235642 66.56631526 190.13566043 66.10212708 186.26742554 C63.72546304 181.69014666 61.96929214 179.80998093 57.10212708 178.26742554 C54.65725228 177.96342406 54.65725228 177.96342406 52.11579895 177.99276733 C51.15129822 177.98323532 50.18679749 177.97370331 49.19306946 177.96388245 C47.64758423 177.96524956 47.64758423 177.96524956 46.07087708 177.96664429 C45.00220398 177.96235916 43.93353088 177.95807404 42.83247375 177.95365906 C40.57649951 177.94792461 38.32050677 177.94740896 36.06452942 177.95175171 C32.61450192 177.95491419 29.16533003 177.93143193 25.71540833 177.90609741 C23.52139899 177.90382458 21.32738735 177.90312085 19.13337708 177.90414429 C18.10305359 177.89493454 17.0727301 177.88572479 16.01118469 177.87623596 C9.69204257 177.91704527 5.9659781 178.502328 1.28962708 183.01742554 Z " fill="#5D25ED" transform="translate(112.89787292480469,47.732574462890625)"/>
<path d="M0 0 C22.85337443 -0.09360338 45.70671706 -0.16405751 68.56024456 -0.20724869 C79.17247122 -0.22783963 89.7845785 -0.25589373 100.39672852 -0.30175781 C109.65049203 -0.34173196 118.90416904 -0.367458 128.1580165 -0.37635398 C133.05406363 -0.38155085 137.94986338 -0.3936926 142.84583092 -0.42292023 C147.46282678 -0.45025675 152.07947553 -0.45840847 156.69654465 -0.45243073 C158.38267598 -0.45352286 160.06882004 -0.46136744 161.75488091 -0.4768219 C178.43673901 -0.62210877 191.28181942 2.62260133 203.75 14.25 C215.32761594 26.31169744 216.45132725 41.39643116 216.37231445 57.28149414 C216.37474655 59.00398986 216.37846991 60.72648416 216.38337708 62.44897461 C216.39272617 67.09508005 216.38341474 71.74097265 216.37004495 76.38706136 C216.35868132 81.25612347 216.36284132 86.12517586 216.36479187 90.99424744 C216.36567254 99.15887918 216.35463574 107.32342751 216.33618164 115.48803711 C216.31495365 124.93415214 216.311519 134.38014563 216.3177436 143.8262797 C216.32342923 152.91977551 216.31780519 162.01322844 216.30657005 171.10671806 C216.30191994 174.97631051 216.3010519 178.84587678 216.3031559 182.71547127 C216.30503376 187.26195156 216.29697387 191.80830732 216.2810955 196.35475922 C216.27683999 198.02614515 216.27601056 199.69754368 216.27878571 201.36893272 C216.28198951 203.64270508 216.27297224 205.91610098 216.26069641 208.18983459 C216.25761711 210.10140398 216.25761711 210.10140398 216.25447559 212.05159092 C216 215 216 215 214 217 C213.81805066 208.81279146 213.65461346 200.62526842 213.5 192.4375 C213.47599121 191.16688721 213.45198242 189.89627441 213.42724609 188.5871582 C213.11126888 171.25677509 212.9582183 153.93100524 212.96875 136.59765625 C212.96951286 135.25010663 212.96951286 135.25010663 212.97029114 133.87533379 C212.97689113 124.90988515 212.99510103 115.94451543 213.02805328 106.97912502 C213.03972711 103.6143887 213.04783236 100.24964875 213.05543518 96.88490105 C213.06235481 94.54901169 213.07496146 92.21319791 213.08776855 89.87733459 C213.09135733 88.47030711 213.09466981 87.06327889 213.09765625 85.65625 C213.10289307 84.43744141 213.10812988 83.21863281 213.11352539 81.96289062 C213.13609326 78.94215807 213.13609326 78.94215807 212 76 C211.98402849 73.86035593 212.03402866 71.71996285 212.12109375 69.58203125 C212.16943359 68.32841797 212.21777344 67.07480469 212.26757812 65.78320312 C212.32365234 64.47287109 212.37972656 63.16253906 212.4375 61.8125 C212.49074235 60.4772337 212.5434826 59.14194728 212.59570312 57.80664062 C212.72552346 54.53752856 212.86049536 51.26871081 213 48 C212.34 48 211.68 48 211 48 C211.66 44.7 212.32 41.4 213 38 C212.34 38 211.68 38 211 38 C210.67 36.02 210.34 34.04 210 32 C209.34 32 208.68 32 208 32 C208.061875 31.21625 208.12375 30.4325 208.1875 29.625 C208.125625 28.75875 208.06375 27.8925 208 27 C204.81237635 24.87491756 202.73487777 24.4979837 199 24 C199 23.34 199 22.68 199 22 C198.34 22 197.68 22 197 22 C196.67 20.02 196.34 18.04 196 16 C195.01 16.99 194.02 17.98 193 19 C192.4254048 15.26513121 192 11.78706732 192 8 C191.21625 8 190.4325 8 189.625 8 C188.08333333 8 186.54166667 8 185 8 C183.32254318 8.63903117 181.65438613 9.30341637 180 10 C179.67 9.01 179.34 8.02 179 7 C178.01 6.67 177.02 6.34 176 6 C176 5.34 176 4.68 176 4 C174.68 4.33 173.36 4.66 172 5 C172 4.34 172 3.68 172 3 C168.74180007 1.37090004 165.15382033 1.85850406 161.57421875 1.8671875 C160.72311523 1.86591354 159.87201172 1.86463959 158.99511719 1.86332703 C156.225877 1.86151774 153.45673056 1.8678787 150.6875 1.875 C149.75161041 1.87555389 148.81572083 1.87610779 147.85147095 1.87667847 C136.70373366 1.88447954 125.5651778 1.89259586 114.44213867 2.73193359 C110.37249669 3.01434564 106.51260888 2.90974725 102.44824219 2.51586914 C96.45307168 1.99362846 90.51900789 1.85466493 84.50390625 1.8671875 C83.46733383 1.86623077 82.43076141 1.86527405 81.36277771 1.86428833 C79.1957086 1.86361388 77.02863738 1.86541629 74.86157227 1.86962891 C71.54634105 1.87502631 68.23124293 1.86963929 64.91601562 1.86328125 C62.79947887 1.86394141 60.6829422 1.8652213 58.56640625 1.8671875 C57.57991592 1.86516327 56.5934256 1.86313904 55.57704163 1.86105347 C54.19421242 1.86578171 54.19421242 1.86578171 52.78344727 1.87060547 C51.57532127 1.87179886 51.57532127 1.87179886 50.3427887 1.87301636 C47.92996424 1.94714771 47.92996424 1.94714771 45.3299408 2.53933716 C42.78629437 3.04225268 41.46560972 2.63628638 39 2 C38.41089844 2.16242187 37.82179687 2.32484375 37.21484375 2.4921875 C34.52058461 3.10991887 32.37794406 2.89808024 29.625 2.625 C23.15064445 2.05395146 16.68064059 1.72026412 10.1875 1.4375 C9.18992676 1.39383301 8.19235352 1.35016602 7.16455078 1.30517578 C4.77643241 1.2018138 2.38826089 1.10000662 0 1 C0 0.67 0 0.34 0 0 Z " fill="#901AD2" transform="translate(113,48)"/>
<path d="M0 0 C0.33 0 0.66 0 1 0 C1.01030746 0.90709213 1.02061493 1.81418427 1.03123474 2.74876404 C1.12948746 11.32553223 1.23203959 19.90223617 1.33933926 28.47889614 C1.39434457 32.8875183 1.44772685 37.2961473 1.49731445 41.70483398 C1.54529069 45.96482228 1.59764196 50.224737 1.65294075 54.48463631 C1.67321472 56.10438246 1.6919509 57.72414867 1.70907402 59.3439312 C1.73345303 61.6244615 1.76345638 63.90485717 1.79467773 66.18530273 C1.81022202 67.47991928 1.8257663 68.77453583 1.84178162 70.10838318 C1.95661711 72.93293329 2.16618615 75.6143822 2.50772095 78.40940857 C3.05658023 83.04453276 3.12069001 87.60113291 3.08178711 92.26416016 C3.07872055 93.14180527 3.07565399 94.01945038 3.07249451 94.9236908 C3.06538905 96.8126176 3.05602578 98.70153704 3.04459953 100.59044266 C3.02708117 103.58393089 3.01687034 106.57736485 3.00868225 109.57089233 C2.9843357 118.076285 2.94861179 126.58160387 2.90405273 135.08691406 C2.87722874 140.30385231 2.86021513 145.52074901 2.84918404 150.73774338 C2.84299175 152.71922727 2.83300845 154.70070319 2.81910515 156.68214798 C2.79982489 159.45302843 2.79298437 162.22369026 2.78881836 164.99462891 C2.77567596 166.21204521 2.77567596 166.21204521 2.76226807 167.45405579 C2.77057131 172.30741491 3.44025369 176.34960606 5 181 C5.309375 181.94875 5.61875 182.8975 5.9375 183.875 C6.288125 184.57625 6.63875 185.2775 7 186 C7.99 186.33 8.98 186.66 10 187 C11.125 192.625 11.125 192.625 10 196 C10.495 196.45375 10.99 196.9075 11.5 197.375 C13 199 13 199 13 201 C14.65 201 16.3 201 18 201 C18 202.66666667 18 204.33333333 18 206 C18.556875 205.690625 19.11375 205.38125 19.6875 205.0625 C22.12540433 203.94238179 24.36224186 203.43962636 27 203 C27 203.66 27 204.32 27 205 C26.34 205 25.68 205 25 205 C25.46853622 207.99405579 25.46853622 207.99405579 27 211 C30.52451159 212.46022435 30.52451159 212.46022435 34 213 C34.66 212.34 35.32 211.68 36 211 C38.625 210.875 38.625 210.875 41 211 C41.33 212.32 41.66 213.64 42 215 C65.13922525 215.04668952 88.27844276 215.08197388 111.41770554 215.10362434 C122.16129886 215.11394354 132.90486294 215.12801617 143.6484375 215.15087891 C153.01088519 215.17079308 162.37331172 215.18371175 171.73578 215.18817699 C176.69461516 215.19078771 181.65338973 215.19693742 186.61220551 215.21146011 C191.2775304 215.22501286 195.94276962 215.22922732 200.60811234 215.22621536 C202.32219788 215.22676656 204.03628622 215.23075772 205.75035477 215.23841095 C208.0874803 215.24833613 210.42428079 215.24597783 212.76141357 215.24050903 C214.07035961 215.24235262 215.37930565 215.24419621 216.72791672 215.24609566 C219.86063039 215.01048209 221.31446012 214.44909209 224 213 C227.75 213.375 227.75 213.375 231 214 C222.62852628 219.58098248 211.58962302 218.29079892 201.9206543 218.2746582 C200.19497457 218.27901088 198.46929678 218.28419588 196.74362183 218.29014587 C192.07612059 218.30348841 187.40870057 218.30411976 182.741184 218.30158257 C178.83492094 218.30050948 174.92867408 218.30540496 171.02241451 218.310188 C161.80081924 218.32126712 152.57926471 218.32172979 143.35766602 218.31567383 C133.86746107 218.30963694 124.37740449 218.3219415 114.88722485 218.3432439 C106.718761 218.36090037 98.5503442 218.36685482 90.38186198 218.36360615 C85.51231747 218.36179935 80.64287878 218.36436888 75.77335167 218.37832069 C71.19072577 218.39096016 66.60832989 218.38889746 62.02570724 218.37590981 C60.35206713 218.37355761 58.67841052 218.37622953 57.00478935 218.38453293 C40.41645866 218.46084367 25.6207085 216.04464691 13.10546875 204.3046875 C7.42995654 198.09216022 3.52279941 190.98886481 1 183 C0.72141569 182.12490343 0.72141569 182.12490343 0.43720341 181.23212814 C-0.18700667 178.04524337 -0.12252816 174.97021524 -0.12025452 171.72344971 C-0.12110894 170.98907614 -0.12196337 170.25470256 -0.12284368 169.49807525 C-0.12449109 167.03677797 -0.11898919 164.57554881 -0.11352539 162.11425781 C-0.11324333 160.35014345 -0.11340162 158.58602897 -0.1139679 156.82191467 C-0.11425515 152.03097176 -0.10837004 147.24005381 -0.10139394 142.44911671 C-0.09514843 137.44294676 -0.09455565 132.43677627 -0.09336853 127.43060303 C-0.09025876 117.94987626 -0.08205012 108.46916101 -0.07201904 98.98843932 C-0.06084694 88.19532494 -0.05534468 77.40221001 -0.05032361 66.60909128 C-0.03986723 44.40605443 -0.0222746 22.20302794 0 0 Z " fill="#313BC0" transform="translate(68,85)"/>
<path d="M0 0 C2.47254841 3.70882262 2.25136804 5.56102108 2.25396729 9.99098206 C2.25708727 10.70675586 2.26020725 11.42252967 2.26342177 12.15999359 C2.27141529 14.5645092 2.26507297 16.96877341 2.25878906 19.37329102 C2.2614983 21.094606 2.26505886 22.81591983 2.26940918 24.53723145 C2.27854275 29.21681972 2.27498512 33.89632 2.26865101 38.57590985 C2.26359684 43.46637543 2.26828076 48.35683333 2.27142334 53.24729919 C2.27506434 61.45972042 2.27026001 69.67210571 2.26074219 77.88452148 C2.24985376 87.38954057 2.25338549 96.89447388 2.264395 106.39949089 C2.27345974 114.55069037 2.27475725 122.70186397 2.26951766 130.85306686 C2.26639394 135.72570861 2.26599968 140.59830999 2.27259064 145.47094917 C2.2783518 150.05014453 2.27438988 154.62922886 2.26280212 159.20841217 C2.26014908 160.89269514 2.26093154 162.57698739 2.26532745 164.26126671 C2.27075901 166.55297278 2.2639783 168.84431872 2.25396729 171.13600159 C2.25321323 172.42077172 2.25245918 173.70554186 2.25168228 175.02924442 C2 178 2 178 0 180 C-0.18194934 171.81279146 -0.34538654 163.62526842 -0.5 155.4375 C-0.52400879 154.16688721 -0.54801758 152.89627441 -0.57275391 151.5871582 C-0.88873112 134.25677509 -1.0417817 116.93100524 -1.03125 99.59765625 C-1.03074142 98.69928984 -1.03023285 97.80092342 -1.02970886 96.87533379 C-1.02310887 87.90988515 -1.00489897 78.94451543 -0.97194672 69.97912502 C-0.96027289 66.6143887 -0.95216764 63.24964875 -0.94456482 59.88490105 C-0.93764519 57.54901169 -0.92503854 55.21319791 -0.91223145 52.87733459 C-0.90864267 51.47030711 -0.90533019 50.06327889 -0.90234375 48.65625 C-0.89448853 46.82803711 -0.89448853 46.82803711 -0.88647461 44.96289062 C-0.86390674 41.94215807 -0.86390674 41.94215807 -2 39 C-2.01597151 36.86035593 -1.96597134 34.71996285 -1.87890625 32.58203125 C-1.83056641 31.32841797 -1.78222656 30.07480469 -1.73242188 28.78320312 C-1.67634766 27.47287109 -1.62027344 26.16253906 -1.5625 24.8125 C-1.50925765 23.4772337 -1.4565174 22.14194728 -1.40429688 20.80664062 C-1.27447654 17.53752856 -1.13950464 14.26871081 -1 11 C-1.66 11 -2.32 11 -3 11 C-2.69217504 9.35328588 -2.37860766 7.70764424 -2.0625 6.0625 C-1.88847656 5.14597656 -1.71445312 4.22945313 -1.53515625 3.28515625 C-1 1 -1 1 0 0 Z " fill="#7B2ABE" transform="translate(327,85)"/>
<path d="M0 0 C52.14 0 104.28 0 158 0 C157.34 1.32 156.68 2.64 156 4 C154.01432292 3.96744792 152.02864583 3.93489583 150.04296875 3.90234375 C147.79694539 3.91736783 147.79694539 3.91736783 145 5 C144.67 4.67 144.34 4.34 144 4 C142.15238732 3.90351752 140.3010419 3.87812682 138.45091248 3.87974548 C136.64401443 3.87768349 136.64401443 3.87768349 134.8006134 3.87557983 C133.45358252 3.87911944 132.10655188 3.88275425 130.75952148 3.88647461 C129.35052492 3.88675648 127.94152821 3.88659875 126.53253174 3.8860321 C122.6959237 3.88574411 118.85934666 3.89164106 115.02274585 3.89860606 C111.01753059 3.90483937 107.0123147 3.90544338 103.00709534 3.90663147 C95.41747996 3.90974485 87.82787892 3.91795833 80.23826987 3.92798096 C71.59996076 3.93914188 62.96165099 3.94465249 54.32333648 3.94967639 C36.54888285 3.96014094 18.77444258 3.97774052 1 4 C0.67 2.68 0.34 1.36 0 0 Z " fill="#3F1C83" transform="translate(119,134)"/>
<path d="M0 0 C3.05456334 3.04846641 6.09860512 6.10700896 9.13671875 9.171875 C10.6535904 10.69797176 12.1705188 12.22401213 13.6875 13.75 C14.45900391 14.52988281 15.23050781 15.30976563 16.02539062 16.11328125 C16.76337891 16.85449219 17.50136719 17.59570312 18.26171875 18.359375 C18.93162842 19.03452148 19.60153809 19.70966797 20.29174805 20.40527344 C21.92404963 22.08013047 21.92404963 22.08013047 24 23 C24 23.66 24 24.32 24 25 C24.5775 25.268125 25.155 25.53625 25.75 25.8125 C28 27 28 27 29.75 28.625 C32.44806202 30.27381568 34.71813685 30.66582826 37.87255859 30.54101562 C44.91584529 28.74988373 50.89278178 20.06865859 55.625 14.875 C59.86350283 10.22828071 64.06117243 5.90547288 69 2 C69.495 3.98 69.495 3.98 70 6 C69.01 6.33 68.02 6.66 67 7 C67 7.66 67 8.32 67 9 C66.01 9 65.02 9 64 9 C63.34 10.32 62.68 11.64 62 13 C61.34 13 60.68 13 60 13 C60 13.66 60 14.32 60 15 C59.38125 15.20625 58.7625 15.4125 58.125 15.625 C55.70763765 16.87273939 55.70763765 16.87273939 55.0625 19.875 C53.77054676 23.67486246 52.14728704 24.62034395 49 27 C47.94895617 28.63495707 46.94011682 30.29883624 46 32 C45.34 32.66 44.68 33.32 44 34 C43.34 34 42.68 34 42 34 C40.88753906 34.02320313 39.77507812 34.04640625 38.62890625 34.0703125 C37.27344285 34.08893516 35.91797377 34.10714804 34.5625 34.125 C33.88123047 34.14175781 33.19996094 34.15851563 32.49804688 34.17578125 C28.75759218 34.21241646 27.19620789 34.13080526 24 32 C24 32.66 24 33.32 24 34 C23.34 33.67 22.68 33.34 22 33 C22.66 31.68 23.32 30.36 24 29 C23.34 29 22.68 29 22 29 C22 27.68 22 26.36 22 25 C18.41672247 23.99782936 18.41672247 23.99782936 15 25 C13.875 20.25 13.875 20.25 15 18 C11.37 18 7.74 18 4 18 C3.91087781 14.16774573 4.12132271 10.73437848 5 7 C2.525 6.01 2.525 6.01 0 5 C0 3.35 0 1.7 0 0 Z " fill="#4F33E2" transform="translate(210,246)"/>
<path d="M0 0 C4.69639527 -0.32388933 8.93830821 0.12758728 13.59765625 0.7734375 C21.43047169 1.51214205 29.24213649 1.21691977 37 0 C41.27053679 -0.20335889 45.33245352 -0.09206751 49.57397461 0.49291992 C54.15980657 1.07463167 58.7022535 1.1869347 63.3203125 1.24609375 C65.0898492 1.27900532 66.85938033 1.31221738 68.62890625 1.34570312 C71.38489314 1.39318621 74.14085324 1.4377248 76.89697266 1.47680664 C79.57996893 1.51662007 82.26254857 1.56810294 84.9453125 1.62109375 C85.76419952 1.6295079 86.58308655 1.63792206 87.42678833 1.64659119 C91.99096479 1.7446565 95.70140795 2.2758205 100 4 C95.74959539 5.19356794 91.62356791 5.12488196 87.23999023 5.09765625 C86.35665009 5.09619598 85.47330994 5.09473572 84.5632019 5.0932312 C82.64744444 5.08942892 80.73169048 5.08331626 78.81594658 5.07516479 C75.78614982 5.06240548 72.75639682 5.05588682 69.72657776 5.05102539 C63.29686555 5.03959535 56.86718936 5.02034863 50.4375 5 C42.98414937 4.97642573 35.53081935 4.95602784 28.07744026 4.94406128 C25.08882529 4.93756571 22.10027318 4.92505845 19.11167908 4.91235352 C17.28465836 4.90872188 15.45763706 4.90537004 13.63061523 4.90234375 C12.79676804 4.89717743 11.96292084 4.89201111 11.10380554 4.88668823 C7.8079618 4.88638413 5.14952022 4.95015993 2 6 C0.96683512 8.79172239 0.96683512 8.79172239 0.3125 12.0625 C0.06113281 13.16722656 -0.19023438 14.27195313 -0.44921875 15.41015625 C-0.63097656 16.26480469 -0.81273438 17.11945313 -1 18 C-1.66 18 -2.32 18 -3 18 C-3.27272727 4.90909091 -3.27272727 4.90909091 0 0 Z " fill="#4D29C4" transform="translate(114,168)"/>
<path d="M0 0 C0 1.32 0 2.64 0 4 C3.41473313 7.3603425 3.41473313 7.3603425 8 8 C6.8905928 11.48670834 5.73662334 14.77484237 4 18 C4.99 18 5.98 18 7 18 C7 20.97 7 23.94 7 27 C4.03 27 1.06 27 -2 27 C-2 25.68 -2 24.36 -2 23 C-2.66 22.67 -3.32 22.34 -4 22 C-3.34 21.175 -2.68 20.35 -2 19.5 C0.63734826 15.50143974 0.67528172 12.72697204 0 8 C-2.17574416 5.30894802 -3.91065856 3.54467072 -7 2 C-8.45679137 1.89632139 -9.91814176 1.85353219 -11.37857056 1.84178162 C-12.29846268 1.8319928 -13.2183548 1.82220398 -14.16612244 1.81211853 C-15.68418236 1.80348534 -15.68418236 1.80348534 -17.23291016 1.79467773 C-18.2963414 1.78477814 -19.35977264 1.77487854 -20.45542908 1.76467896 C-23.98328395 1.7329992 -27.51115232 1.70828093 -31.0390625 1.68359375 C-33.48001462 1.66302982 -35.92096314 1.6420335 -38.36190796 1.62062073 C-44.79643845 1.56534217 -51.23100138 1.51595842 -57.66558838 1.46777344 C-64.22760923 1.4176006 -70.78958279 1.36189255 -77.3515625 1.30664062 C-90.23433435 1.19898832 -103.11714655 1.09737125 -116 1 C-116 0.67 -116 0.34 -116 0 C-101.17084555 -0.15382907 -86.34164278 -0.30186431 -71.51236153 -0.4429636 C-64.62718819 -0.50861115 -57.74204342 -0.57616917 -50.85693359 -0.64819336 C-44.21749756 -0.71764227 -37.57802426 -0.7818087 -30.93850327 -0.84269524 C-28.40024957 -0.86684663 -25.86201234 -0.89279454 -23.32379532 -0.92053413 C-19.7798546 -0.95896384 -16.23591013 -0.99111414 -12.69189453 -1.02172852 C-11.63310089 -1.03467453 -10.57430725 -1.04762054 -9.48342896 -1.06095886 C-8.52146606 -1.06799835 -7.55950317 -1.07503784 -6.56838989 -1.08229065 C-5.72955828 -1.09058679 -4.89072666 -1.09888292 -4.02647591 -1.10743046 C-2 -1 -2 -1 0 0 Z " fill="#7B2DD1" transform="translate(280,113)"/>
<path d="M0 0 C49.17 0 98.34 0 149 0 C149 0.33 149 0.66 149 1 C143.38121711 1.31364756 137.76198258 1.6163326 132.14208984 1.90942383 C130.23535757 2.01034575 128.32877388 2.11412111 126.42236328 2.22094727 C123.66213798 2.37509724 120.90151872 2.51854362 118.140625 2.66015625 C116.88829071 2.73351952 116.88829071 2.73351952 115.61065674 2.80836487 C110.00760237 3.08250286 104.61039621 2.76594441 99.02822876 2.24345398 C94.18667754 1.85421822 89.3585555 1.85708082 84.50390625 1.8671875 C83.46733383 1.86623077 82.43076141 1.86527405 81.36277771 1.86428833 C79.1957086 1.86361388 77.02863738 1.86541629 74.86157227 1.86962891 C71.54634105 1.87502631 68.23124293 1.86963929 64.91601562 1.86328125 C62.79947887 1.86394141 60.6829422 1.8652213 58.56640625 1.8671875 C57.57991592 1.86516327 56.5934256 1.86313904 55.57704163 1.86105347 C54.19421242 1.86578171 54.19421242 1.86578171 52.78344727 1.87060547 C51.57532127 1.87179886 51.57532127 1.87179886 50.3427887 1.87301636 C47.92996424 1.94714771 47.92996424 1.94714771 45.3299408 2.53933716 C42.78629437 3.04225268 41.46560972 2.63628638 39 2 C38.41089844 2.16242187 37.82179687 2.32484375 37.21484375 2.4921875 C34.52058461 3.10991887 32.37794406 2.89808024 29.625 2.625 C23.15064445 2.05395146 16.68064059 1.72026412 10.1875 1.4375 C9.18992676 1.39383301 8.19235352 1.35016602 7.16455078 1.30517578 C4.77643241 1.2018138 2.38826089 1.10000662 0 1 C0 0.67 0 0.34 0 0 Z " fill="#8E20E3" transform="translate(113,48)"/>
<path d="M0 0 C2.76276177 0.52268466 5.3260876 1.10869587 8 2 C9.8287107 2.37730929 11.66277089 2.72913182 13.5 3.0625 C14.4590625 3.23910156 15.418125 3.41570312 16.40625 3.59765625 C19.05662911 4.07664361 19.05662911 4.07664361 22 4 C22.56638908 8.81430721 20.82561627 11.20307814 18 15 C16.79371992 12.66785852 15.8345262 10.50357861 15 8 C12.10277909 6.2957524 10.05365873 6.00101243 6.6875 5.9375 C2.32234102 7.19525767 0.12797246 9.11579011 -3.10546875 12.2109375 C-4.97465299 13.97606406 -6.91822905 15.49521656 -9 17 C-9 16.34 -9 15.68 -9 15 C-9.99 15.495 -9.99 15.495 -11 16 C-11.65213292 18.02463255 -11.65213292 18.02463255 -12 20 C-12.66 20 -13.32 20 -14 20 C-14.33 20.66 -14.66 21.32 -15 22 C-15.66 22 -16.32 22 -17 22 C-17 19.69 -17 17.38 -17 15 C-15.329375 14.5978125 -15.329375 14.5978125 -13.625 14.1875 C-9.78159049 13.34190981 -9.78159049 13.34190981 -8 10 C-7.34 10 -6.68 10 -6 10 C-5.67 9.01 -5.34 8.02 -5 7 C-4.01 7 -3.02 7 -2 7 C-1.855625 6.21625 -1.71125 5.4325 -1.5625 4.625 C-1 2 -1 2 0 0 Z " fill="#7025D3" transform="translate(290,196)"/>
<path d="M0 0 C1.08088646 0.48699371 1.08088646 0.48699371 2.18360901 0.98382568 C5.0361444 2.01304116 7.05034276 2.25321017 10.06225586 2.25878906 C11.04354965 2.26509338 12.02484344 2.27139771 13.03587341 2.27789307 C14.08493362 2.2738446 15.13399384 2.26979614 16.21484375 2.265625 C17.30334122 2.26753845 18.39183868 2.2694519 19.51332092 2.27142334 C21.81218701 2.27278255 24.11106083 2.26910457 26.40991211 2.26074219 C29.92123747 2.25004952 33.43205001 2.26064136 36.94335938 2.2734375 C39.17968863 2.27211566 41.41601756 2.26955275 43.65234375 2.265625 C44.69937973 2.26967346 45.74641571 2.27372192 46.82518005 2.27789307 C51.94397298 2.24511268 56.21269096 2.05512958 61 0 C60.4375 1.875 60.4375 1.875 59 4 C54.44548169 5.69678133 49.83022498 6.5169775 45 7 C44.505 6.505 44.505 6.505 44 6 C41.70848583 5.91209025 39.41427476 5.89305962 37.12109375 5.90234375 C36.4344313 5.9037587 35.74776886 5.90517365 35.04029846 5.90663147 C32.83932199 5.91224521 30.63844591 5.92479993 28.4375 5.9375 C26.94856917 5.94251324 25.45963676 5.94707645 23.97070312 5.95117188 C20.31376925 5.96221907 16.65689442 5.97949287 13 6 C12.67 7.32 12.34 8.64 12 10 C10.35 10 8.7 10 7 10 C6.67 8.68 6.34 7.36 6 6 C4.68 5.67 3.36 5.34 2 5 C2 4.34 2 3.68 2 3 C1.34 3 0.68 3 0 3 C0 2.01 0 1.02 0 0 Z " fill="#3E3BC2" transform="translate(116,244)"/>
<path d="M0 0 C2.67927341 4.01891012 2.15601248 6.24161923 2 11 C0.68 11 -0.64 11 -2 11 C-2.66 13.31 -3.32 15.62 -4 18 C-6.97 18.66 -9.94 19.32 -13 20 C-12.67 20.99 -12.34 21.98 -12 23 C-15.75 26 -15.75 26 -18 26 C-18.66 27.98 -19.32 29.96 -20 32 C-22.475 32.495 -22.475 32.495 -25 33 C-25 33.66 -25 34.32 -25 35 C-25.99 35 -26.98 35 -28 35 C-26.34259271 30.65062544 -23.08835571 27.90892637 -19.8125 24.75 C-14.97877145 20.0058095 -10.35155292 15.19570663 -6 10 C-5.50757813 9.44699219 -5.01515625 8.89398438 -4.5078125 8.32421875 C-2.17390152 5.6672523 -0.41384006 3.58661385 0 0 Z " fill="#6D25E3" transform="translate(307,213)"/>
<path d="M0 0 C2.0625 0.4375 2.0625 0.4375 4 1 C4 1.33 4 1.66 4 2 C5.258125 2.144375 6.51625 2.28875 7.8125 2.4375 C10.42667123 2.73748686 12.47439892 3.15813297 15 4 C15 4.99 15 5.98 15 7 C16.32 7.33 17.64 7.66 19 8 C19 8.66 19 9.32 19 10 C19.99 10.33 20.98 10.66 22 11 C22 11.99 22 12.98 22 14 C22.66 14 23.32 14 24 14 C24.33 13.34 24.66 12.68 25 12 C25.33 13.98 25.66 15.96 26 18 C27.65 18.33 29.3 18.66 31 19 C31.495 21.475 31.495 21.475 32 24 C32.99 24.33 33.98 24.66 35 25 C34.01 25.495 34.01 25.495 33 26 C27.41312142 21.33331318 22.25350551 16.33355119 17.21386719 11.08886719 C13.57670565 7.34317062 13.57670565 7.34317062 9 5 C3.68462908 5.19328622 0.86633601 6.36798738 -3 10 C-3 8.35 -3 6.7 -3 5 C-2.01 4.67 -1.02 4.34 0 4 C-0.33 3.01 -0.66 2.02 -1 1 C-0.67 0.67 -0.34 0.34 0 0 Z " fill="#502FC5" transform="translate(212,226)"/>
<path d="M0 0 C-3.8727 2.5818 -6.72565973 3.12596311 -11.31536865 3.12025452 C-12.59836098 3.12231651 -12.59836098 3.12231651 -13.90727234 3.12442017 C-14.83731583 3.12082489 -15.76735931 3.11722961 -16.72558594 3.11352539 C-17.71128067 3.11367142 -18.6969754 3.11381744 -19.71253967 3.1139679 C-22.96984052 3.11327136 -26.22708415 3.10549103 -29.484375 3.09765625 C-31.74310271 3.09579115 -34.00183082 3.09436768 -36.26055908 3.09336853 C-42.20519121 3.08955059 -48.14979891 3.07972645 -54.09442139 3.06866455 C-60.16060048 3.05843491 -66.22678352 3.05386758 -72.29296875 3.04882812 C-84.19532324 3.03810356 -96.09765959 3.02103578 -108 3 C-108 2.67 -108 2.34 -108 2 C-106.79143845 1.99191315 -105.58287689 1.98382629 -104.33769226 1.97549438 C-92.96295147 1.89809936 -81.58833128 1.81037697 -70.21374798 1.71247292 C-64.36558606 1.66247007 -58.51744256 1.61614038 -52.66918945 1.578125 C-47.02812752 1.54132262 -41.38721821 1.49497643 -35.74628639 1.44193649 C-33.59128298 1.42336568 -31.43624683 1.40826772 -29.28119469 1.39665604 C-26.26892757 1.37983959 -23.25701205 1.35081566 -20.24487305 1.31884766 C-18.90051933 1.31560738 -18.90051933 1.31560738 -17.52900696 1.31230164 C-16.70871002 1.30113815 -15.88841309 1.28997467 -15.04325867 1.2784729 C-14.33071269 1.27294214 -13.61816671 1.26741138 -12.88402843 1.26171303 C-1.74354525 -0.28582709 -1.74354525 -0.28582709 0 0 Z " fill="#5041DC" transform="translate(299,299)"/>
<path d="M0 0 C0.78375 0.804375 1.5675 1.60875 2.375 2.4375 C6.5494512 6.5125595 9.72508125 6.16594868 15.30517578 6.20532227 C16.59308517 6.22017166 16.59308517 6.22017166 17.90701294 6.23532104 C20.75308447 6.26698039 23.59917271 6.29171098 26.4453125 6.31640625 C28.41544028 6.33697195 30.3855636 6.35796832 32.35568237 6.37937927 C37.54734702 6.43463961 42.73905174 6.4840314 47.93078613 6.53222656 C53.22602923 6.58241269 58.52121395 6.63811381 63.81640625 6.69335938 C74.21088766 6.8009894 84.6054197 6.9024236 95 7 C95 7.33 95 7.66 95 8 C83.03923515 8.02313322 71.07847558 8.04092011 59.11769295 8.05181217 C53.56429379 8.05703885 48.0109099 8.06413261 42.45751953 8.07543945 C37.10184453 8.08627595 31.74618423 8.09227846 26.39049911 8.09487724 C24.34349206 8.09673011 22.29648584 8.10034809 20.24948502 8.10573006 C17.3904265 8.11295057 14.5314294 8.11399051 11.67236328 8.11352539 C10.81928589 8.11712067 9.9662085 8.12071594 9.08728027 8.12442017 C3.22810432 8.11405216 3.22810432 8.11405216 1 7 C0.59270772 4.67843403 0.25561323 2.3431213 0 0 Z " fill="#5340BB" transform="translate(113,186)"/>
<path d="M0 0 C0.66 1.32 1.32 2.64 2 4 C1.01 4.33 0.02 4.66 -1 5 C-1 5.66 -1 6.32 -1 7 C-1.99 7 -2.98 7 -4 7 C-4.66 8.32 -5.32 9.64 -6 11 C-6.66 11 -7.32 11 -8 11 C-8 11.66 -8 12.32 -8 13 C-8.61875 13.20625 -9.2375 13.4125 -9.875 13.625 C-12.29236235 14.87273939 -12.29236235 14.87273939 -12.9375 17.875 C-14.2388624 21.70253648 -15.72627398 22.7160051 -19 25 C-19.845625 25.763125 -20.69125 26.52625 -21.5625 27.3125 C-22.366875 27.869375 -23.17125 28.42625 -24 29 C-26.15234375 28.60546875 -26.15234375 28.60546875 -28 28 C-27.51168701 27.5889502 -27.02337402 27.17790039 -26.52026367 26.75439453 C-21.44335409 22.40727171 -16.82907816 17.79625612 -12.3125 12.875 C-11.03852672 11.49668715 -9.76380349 10.11906703 -8.48828125 8.7421875 C-7.8948291 8.10120117 -7.30137695 7.46021484 -6.68994141 6.79980469 C-4.51058931 4.47877267 -2.27062121 2.23154742 0 0 Z " fill="#5230C8" transform="translate(278,248)"/>
<path d="M0 0 C20.13 0 40.26 0 61 0 C57.27921748 1.86039126 56.38945304 2.22831252 52.5625 2.0625 C49.911265 1.99295941 47.8055058 2.03889884 45.1875 2.5625 C42.73619644 3.05276071 41.38420186 2.6152779 39 2 C38.41089844 2.16242187 37.82179687 2.32484375 37.21484375 2.4921875 C34.52058461 3.10991887 32.37794406 2.89808024 29.625 2.625 C23.15064445 2.05395146 16.68064059 1.72026412 10.1875 1.4375 C9.18992676 1.39383301 8.19235352 1.35016602 7.16455078 1.30517578 C4.77643241 1.2018138 2.38826089 1.10000662 0 1 C0 0.67 0 0.34 0 0 Z " fill="#7720E1" transform="translate(113,48)"/>
<path d="M0 0 C1.32 0.33 2.64 0.66 4 1 C3.67 1.66 3.34 2.32 3 3 C3.66 3 4.32 3 5 3 C5 3.66 5 4.32 5 5 C6.65 5.33 8.3 5.66 10 6 C10 6.99 10 7.98 10 9 C10.66 9.33 11.32 9.66 12 10 C12 10.66 12 11.32 12 12 C9.69 12.33 7.38 12.66 5 13 C5 12.34 5 11.68 5 11 C4.34 11 3.68 11 3 11 C2.67 9.02 2.34 7.04 2 5 C1.01 5.99 0.02 6.98 -1 8 C-1.625 5.6875 -1.625 5.6875 -2 3 C-1.34 2.01 -0.68 1.02 0 0 Z " fill="#9E11F2" transform="translate(307,59)"/>
<path d="M0 0 C0.94875 0.350625 1.8975 0.70125 2.875 1.0625 C5.87060172 2.35026777 5.87060172 2.35026777 8 1 C8.99 1.99 9.98 2.98 11 4 C9.77065985 7.68802044 8.06140622 8.72356973 5 11 C5 10.01 5 9.02 5 8 C4.071875 8.99 4.071875 8.99 3.125 10 C1 12 1 12 -1 12 C-0.9278125 11.30132812 -0.855625 10.60265625 -0.78125 9.8828125 C-0.6884375 8.97273437 -0.595625 8.06265625 -0.5 7.125 C-0.4071875 6.22007812 -0.314375 5.31515625 -0.21875 4.3828125 C0.03047295 2.06686789 0.03047295 2.06686789 0 0 Z " fill="#4A2EF1" transform="translate(178,232)"/>
<path d="M0 0 C0.77943466 0.00222061 1.55886932 0.00444122 2.36192322 0.00672913 C3.68317955 0.00684242 3.68317955 0.00684242 5.03112793 0.00695801 C5.98841293 0.01211929 6.94569794 0.01728058 7.93199158 0.02259827 C9.39480812 0.02472069 9.39480812 0.02472069 10.88717651 0.02688599 C14.01542675 0.03250319 17.14360656 0.04505859 20.27183533 0.05775452 C22.38706867 0.0627673 24.50230313 0.06733059 26.61753845 0.07142639 C31.81482829 0.0824782 37.01207678 0.09923305 42.20933533 0.12025452 C42.20933533 0.45025452 42.20933533 0.78025452 42.20933533 1.12025452 C40.34800964 1.13427307 40.34800964 1.13427307 38.44908142 1.14857483 C33.83055667 1.18854735 29.21269294 1.25432659 24.59458923 1.32777405 C22.59858208 1.35594155 20.60246426 1.37717704 18.60630798 1.39125061 C15.73122169 1.41273855 12.85746004 1.45941878 9.98277283 1.51087952 C9.09504181 1.51210815 8.20731079 1.51333679 7.29267883 1.51460266 C1.67440877 1.6464234 -1.48852091 2.42095892 -5.79066467 6.12025452 C-6.91200189 8.42502085 -6.91200189 8.42502085 -7.16566467 10.87025452 C-7.29714905 11.66947327 -7.42863342 12.46869202 -7.56410217 13.29212952 C-7.6388678 13.89541077 -7.71363342 14.49869202 -7.79066467 15.12025452 C-8.12066467 15.12025452 -8.45066467 15.12025452 -8.79066467 15.12025452 C-8.91566467 7.49525452 -8.91566467 7.49525452 -7.79066467 4.12025452 C-8.45066467 3.79025452 -9.11066467 3.46025452 -9.79066467 3.12025452 C-8.65628967 2.81087952 -7.52191467 2.50150452 -6.35316467 2.18275452 C-3.90190007 1.4516756 -2.32596411 0.15620328 0 0 Z " fill="#6533D2" transform="translate(121.79066467285156,112.87974548339844)"/>
<path d="M0 0 C0.66 0.33 1.32 0.66 2 1 C2 3.97 2 6.94 2 10 C-0.97 10 -3.94 10 -7 10 C-7 8.68 -7 7.36 -7 6 C-7.66 5.67 -8.32 5.34 -9 5 C-7.54735962 4.1361871 -6.0876837 3.28419546 -4.625 2.4375 C-3.40683594 1.72400391 -3.40683594 1.72400391 -2.1640625 0.99609375 C-1.44992187 0.66738281 -0.73578125 0.33867187 0 0 Z " fill="#8219E1" transform="translate(285,130)"/>
<path d="M0 0 C-0.6875 1.875 -0.6875 1.875 -2 4 C-3.2065625 4.4640625 -3.2065625 4.4640625 -4.4375 4.9375 C-7.72629186 6.30114541 -8.26172941 7.97692071 -10 11 C-12.1875 12.3125 -12.1875 12.3125 -14 13 C-14 7.5333198 -11.64316894 4.9095327 -8 1 C-4.5647729 -0.99722506 -3.79603125 -1.26534375 0 0 Z " fill="#5219D7" transform="translate(89,59)"/>
<path d="M0 0 C4.3956001 -0.11802706 8.79078286 -0.18785559 13.1875 -0.25 C15.02731445 -0.30027344 15.02731445 -0.30027344 16.90429688 -0.3515625 C25.61441267 -0.44348984 32.84215969 0.95806438 41 4 C41 4.33 41 4.66 41 5 C39.02 5 37.04 5 35 5 C35 4.34 35 3.68 35 3 C31.04 3.66 27.08 4.32 23 5 C23 4.34 23 3.68 23 3 C20.59458071 1.79729036 18.89633409 1.79683337 16.2109375 1.68359375 C15.26992188 1.64169922 14.32890625 1.59980469 13.359375 1.55664062 C12.37453125 1.51732422 11.3896875 1.47800781 10.375 1.4375 C9.38242187 1.39431641 8.38984375 1.35113281 7.3671875 1.30664062 C4.91160162 1.20038931 2.45591297 1.09835036 0 1 C0 0.67 0 0.34 0 0 Z " fill="#8C1ECD" transform="translate(262,48)"/>
<path d="M0 0 C1.65 0.33 3.3 0.66 5 1 C5 1.66 5 2.32 5 3 C5.66 3.33 6.32 3.66 7 4 C6.21238281 4.20367187 5.42476562 4.40734375 4.61328125 4.6171875 C1.73691574 5.78066053 1.73691574 5.78066053 0.85546875 8.8203125 C0.63503906 9.91085938 0.41460937 11.00140625 0.1875 12.125 C-0.04582031 13.22070312 -0.27914062 14.31640625 -0.51953125 15.4453125 C-0.67808594 16.28835937 -0.83664063 17.13140625 -1 18 C-1.66 18 -2.32 18 -3 18 C-3.27272727 4.90909091 -3.27272727 4.90909091 0 0 Z " fill="#4331E0" transform="translate(114,168)"/>
<path d="M0 0 C3.71368887 1.23789629 4.77354181 2.85224877 7 6 C7 6.66 7 7.32 7 8 C8.65 8 10.3 8 12 8 C12 9.66666667 12 11.33333333 12 13 C12.969375 13.2475 13.93875 13.495 14.9375 13.75 C15.948125 14.1625 16.95875 14.575 18 15 C18.875 17.125 18.875 17.125 19 19 C10.66115488 16.10783012 4.56526563 9.36333166 0 2 C0 1.34 0 0.68 0 0 Z " fill="#2C46D8" transform="translate(74,278)"/>
<path d="M0 0 C0.54650208 0.16076523 1.09300415 0.32153046 1.65606689 0.48716736 C4.32244968 1.07054925 6.77315297 1.16149558 9.50292969 1.20532227 C11.15418854 1.2352401 11.15418854 1.2352401 12.83880615 1.26576233 C14.02121887 1.28247482 15.20363159 1.29918732 16.421875 1.31640625 C17.63699768 1.33718735 18.85212036 1.35796844 20.10406494 1.37937927 C23.98598573 1.44476828 27.8679742 1.50371051 31.75 1.5625 C34.38151742 1.60569532 37.01302799 1.64930994 39.64453125 1.69335938 C46.0962826 1.80043883 52.54810129 1.90222514 59 2 C59 2.33 59 2.66 59 3 C30.29 3.495 30.29 3.495 1 4 C0.67 2.68 0.34 1.36 0 0 Z " fill="#5E31D2" transform="translate(119,134)"/>
<path d="M0 0 C-5.03288458 3.35525639 -9.5655584 3.13638998 -15.484375 3.09765625 C-16.29996887 3.0962413 -17.11556274 3.09482635 -17.95587158 3.09336853 C-20.55395212 3.08778303 -23.15194563 3.07523321 -25.75 3.0625 C-27.51432167 3.05748312 -29.27864469 3.05292054 -31.04296875 3.04882812 C-35.36201256 3.03781835 -39.68099154 3.02056369 -44 3 C-44 2.67 -44 2.34 -44 2 C-43.01604248 1.98018066 -42.03208496 1.96036133 -41.01831055 1.93994141 C-37.36717161 1.86386013 -33.71642991 1.775147 -30.06567383 1.68261719 C-28.48567549 1.64433779 -26.90559031 1.60948303 -25.32543945 1.578125 C-23.05388355 1.53245124 -20.78292491 1.47446216 -18.51171875 1.4140625 C-17.80536789 1.40251129 -17.09901703 1.39096008 -16.3712616 1.37905884 C-9.8074807 1.18158943 -6.80792145 -1.1160527 0 0 Z " fill="#573DD9" transform="translate(299,299)"/>
<path d="M0 0 C0.33 0.66 0.66 1.32 1 2 C0.0625 4.125 0.0625 4.125 -1 6 C-1.66 6 -2.32 6 -3 6 C-3.66 7.98 -4.32 9.96 -5 12 C-6.65 12.33 -8.3 12.66 -10 13 C-10 13.66 -10 14.32 -10 15 C-10.99 15 -11.98 15 -13 15 C-11.38989473 10.92623969 -8.46177729 8.23492931 -5.375 5.25 C-4.859375 4.74339844 -4.34375 4.23679688 -3.8125 3.71484375 C-2.54616661 2.47196098 -1.2736856 1.23534724 0 0 Z " fill="#5A2DBA" transform="translate(292,233)"/>
<path d="M0 0 C2.31 0 4.62 0 7 0 C7 0.66 7 1.32 7 2 C8.98 2 10.96 2 13 2 C13.33 2.99 13.66 3.98 14 5 C13.29875 4.773125 12.5975 4.54625 11.875 4.3125 C8.12299725 3.90467361 6.20568943 5.13622707 3 7 C2.67 6.01 2.34 5.02 2 4 C1.01 3.67 0.02 3.34 -1 3 C-0.67 2.01 -0.34 1.02 0 0 Z " fill="#9E13F2" transform="translate(290,51)"/>
<path d="M0 0 C2.475 0.99 2.475 0.99 5 2 C4.01 3.2684375 4.01 3.2684375 3 4.5625 C0.70875763 8.50057282 0.50231214 10.52080923 1 15 C1.88064927 17.35369807 1.88064927 17.35369807 3 19 C1.0625 18.625 1.0625 18.625 -1 18 C-3.31426642 13.37146715 -2.32755096 7.18737222 -1 2.375 C-0.67 1.59125 -0.34 0.8075 0 0 Z " fill="#3138C3" transform="translate(113,225)"/>
<path d="M0 0 C0.99128906 0.33773438 1.98257813 0.67546875 3.00390625 1.0234375 C7.08692451 2.19001415 10.70302654 1.99973216 14.9375 1.625 C15.62134766 1.56828125 16.30519531 1.5115625 17.00976562 1.453125 C18.67417046 1.31345466 20.33726886 1.15835535 22 1 C21.34 2.32 20.68 3.64 20 5 C19.34 5 18.68 5 18 5 C16.33130859 5.03480469 16.33130859 5.03480469 14.62890625 5.0703125 C13.27344285 5.08893516 11.91797377 5.10714804 10.5625 5.125 C9.5405957 5.15013672 9.5405957 5.15013672 8.49804688 5.17578125 C4.75759218 5.21241646 3.19620789 5.13080526 0 3 C0 3.66 0 4.32 0 5 C-0.66 4.67 -1.32 4.34 -2 4 C-1.34 2.68 -0.68 1.36 0 0 Z " fill="#5033E0" transform="translate(234,275)"/>
<path d="M0 0 C0.33 1.32 0.66 2.64 1 4 C0.34 4 -0.32 4 -1 4 C-1.33 5.65 -1.66 7.3 -2 9 C-2.33 8.34 -2.66 7.68 -3 7 C-3.99 7.495 -3.99 7.495 -5 8 C-5.65213292 10.02463255 -5.65213292 10.02463255 -6 12 C-6.66 12 -7.32 12 -8 12 C-8.33 12.66 -8.66 13.32 -9 14 C-9.66 14 -10.32 14 -11 14 C-11 11.69 -11 9.38 -11 7 C-9.88625 6.731875 -8.7725 6.46375 -7.625 6.1875 C-3.78159049 5.34190981 -3.78159049 5.34190981 -2 2 C-1.34 2 -0.68 2 0 2 C0 1.34 0 0.68 0 0 Z " fill="#6B24E1" transform="translate(284,204)"/>
<path d="M0 0 C0.33 0 0.66 0 1 0 C1 13.53 1 27.06 1 41 C0.34 40.67 -0.32 40.34 -1 40 C-0.67 30.1 -0.34 20.2 0 10 C-0.66 10 -1.32 10 -2 10 C-1.34 6.7 -0.68 3.4 0 0 Z " fill="#A114E7" transform="translate(326,86)"/>
<path d="M0 0 C0.66 0 1.32 0 2 0 C1.51286902 4.41510774 0.14946803 6.30446645 -3.0625 9.3125 C-3.79597656 10.00988281 -4.52945312 10.70726562 -5.28515625 11.42578125 C-5.85105469 11.94527344 -6.41695313 12.46476563 -7 13 C-7.625 11.1875 -7.625 11.1875 -8 9 C-7.34 8.01 -6.68 7.02 -6 6 C-5.34 6.33 -4.68 6.66 -4 7 C-4 5.35 -4 3.7 -4 2 C-3.67 2.99 -3.34 3.98 -3 5 C-2.34 5 -1.68 5 -1 5 C-0.67 3.35 -0.34 1.7 0 0 Z " fill="#5E27C2" transform="translate(279,211)"/>
<path d="M0 0 C0.66 0.33 1.32 0.66 2 1 C1.01 2.485 1.01 2.485 0 4 C-2.00810463 4.06374935 -4.02137876 4.12029652 -6.02734375 4.0078125 C-8.21513536 3.89394378 -8.21513536 3.89394378 -11 5 C-11.33 4.67 -11.66 4.34 -12 4 C-14.53049402 3.92686433 -17.03304837 3.90752473 -19.5625 3.9375 C-20.27341797 3.94201172 -20.98433594 3.94652344 -21.71679688 3.95117188 C-23.47790013 3.96299136 -25.23896036 3.98092737 -27 4 C-27 3.67 -27 3.34 -27 3 C-26.25314941 2.94465088 -25.50629883 2.88930176 -24.73681641 2.83227539 C-21.36587008 2.58001878 -17.99544681 2.3213415 -14.625 2.0625 C-13.449375 1.97548828 -12.27375 1.88847656 -11.0625 1.79882812 C-9.94101562 1.71181641 -8.81953125 1.62480469 -7.6640625 1.53515625 C-6.62717285 1.456604 -5.5902832 1.37805176 -4.52197266 1.29711914 C-2.00843528 1.14567233 -2.00843528 1.14567233 0 0 Z " fill="#7624D5" transform="translate(275,134)"/>
<path d="M0 0 C0.33 0.66 0.66 1.32 1 2 C2.32407669 2.68486725 3.65909241 3.34870203 5 4 C5.61875 4.515625 6.2375 5.03125 6.875 5.5625 C9.53785234 7.36384129 11.83835725 7.64072241 15 8 C15 8.33 15 8.66 15 9 C9.06997733 9.37851209 4.52760359 8.10575375 -1 6 C-0.67 4.02 -0.34 2.04 0 0 Z " fill="#472CCF" transform="translate(233,269)"/>
<path d="M0 0 C0.33 0 0.66 0 1 0 C1.56638908 4.81430721 -0.17438373 7.20307814 -3 11 C-4.20628008 8.66785852 -5.1654738 6.50357861 -6 4 C-6.99 3.67 -7.98 3.34 -9 3 C-7.68 2.67 -6.36 2.34 -5 2 C-5 2.99 -5 3.98 -5 5 C-4.01 5 -3.02 5 -2 5 C-1.34 3.35 -0.68 1.7 0 0 Z " fill="#6B20C1" transform="translate(311,200)"/>
<path d="M0 0 C1.51553092 3.97450493 0.49888623 7.20481149 -0.4375 11.25 C-0.72496094 12.51328125 -1.01242188 13.7765625 -1.30859375 15.078125 C-1.53675781 16.04234375 -1.76492187 17.0065625 -2 18 C-4.29820703 13.92711573 -4.01384496 11.60129634 -3 7 C-2.11039775 4.5933918 -1.0921888 2.326837 0 0 Z " fill="#4422C5" transform="translate(73,71)"/>
<path d="M0 0 C4 4 8 8 12 12 C11.01 12.33 10.02 12.66 9 13 C7.62437146 11.71034824 6.29233607 10.37310707 5 9 C5 8.34 5 7.68 5 7 C2.525 6.01 2.525 6.01 0 5 C0 3.35 0 1.7 0 0 Z " fill="#4B34C6" transform="translate(210,246)"/>
<path d="M0 0 C0.66 0 1.32 0 2 0 C0.52278578 3.45201639 -1.43794001 5.64961936 -4.125 8.25 C-4.84945313 8.95640625 -5.57390625 9.6628125 -6.3203125 10.390625 C-6.87460938 10.92171875 -7.42890625 11.4528125 -8 12 C-8.33 10.68 -8.66 9.36 -9 8 C-8.01 8 -7.02 8 -6 8 C-6 7.01 -6 6.02 -6 5 C-5.01 5 -4.02 5 -3 5 C-3.33 4.01 -3.66 3.02 -4 2 C-3.34 1.67 -2.68 1.34 -2 1 C-1.34 1.33 -0.68 1.66 0 2 C0 1.34 0 0.68 0 0 Z " fill="#582FC2" transform="translate(261,232)"/>
<path d="M0 0 C2.475 0.99 2.475 0.99 5 2 C4.52651586 6.1666604 3.95303159 8.92884715 1 12 C0.34 12 -0.32 12 -1 12 C-0.9278125 11.30132812 -0.855625 10.60265625 -0.78125 9.8828125 C-0.6884375 8.97273437 -0.595625 8.06265625 -0.5 7.125 C-0.4071875 6.22007812 -0.314375 5.31515625 -0.21875 4.3828125 C0.03047295 2.06686789 0.03047295 2.06686789 0 0 Z " fill="#432FC8" transform="translate(178,232)"/>
<path d="M0 0 C1.32 0 2.64 0 4 0 C5.07957377 3.23872132 5.13326784 5.66028205 5.125 9.0625 C5.12757813 10.12597656 5.13015625 11.18945312 5.1328125 12.28515625 C5 15 5 15 4 17 C3.01 16.67 2.02 16.34 1 16 C1.33 15.46375 1.66 14.9275 2 14.375 C3.28255688 11.3289274 3.32891174 9.28911742 3 6 C1.60075055 2.69898869 1.60075055 2.69898869 0 0 Z " fill="#552ABA" transform="translate(214,173)"/>
<path d="M0 0 C2 3 2 3 1.875 5.25 C0.72382217 8.86798746 -1.02797934 11.75570795 -3 15 C-3.33 15 -3.66 15 -4 15 C-4 13.02 -4 11.04 -4 9 C-3.01 8.67 -2.02 8.34 -1 8 C-1.33 7.01 -1.66 6.02 -2 5 C-1.0625 2.3125 -1.0625 2.3125 0 0 Z " fill="#592AC5" transform="translate(324,267)"/>
<path d="M0 0 C6.6 0.66 13.2 1.32 20 2 C20 2.33 20 2.66 20 3 C13.07 3 6.14 3 -1 3 C-0.67 2.01 -0.34 1.02 0 0 Z " fill="#4F34E9" transform="translate(120,168)"/>
<path d="M0 0 C0.99 0.33 1.98 0.66 3 1 C2.01 4.96 1.02 8.92 0 13 C-0.66 13 -1.32 13 -2 13 C-2.19294408 8.17639811 -1.75747614 4.50353262 0 0 Z " fill="#3D33C6" transform="translate(113,173)"/>
<path d="M0 0 C0.55268555 0.15847412 1.10537109 0.31694824 1.67480469 0.48022461 C4.22064305 1.04932267 6.59699445 1.2103428 9.203125 1.31640625 C10.67265625 1.37924805 10.67265625 1.37924805 12.171875 1.44335938 C13.18765625 1.48267578 14.2034375 1.52199219 15.25 1.5625 C16.796875 1.62727539 16.796875 1.62727539 18.375 1.69335938 C20.9165387 1.79925682 23.45817196 1.90133443 26 2 C26 2.33 26 2.66 26 3 C13.625 3.495 13.625 3.495 1 4 C0.67 2.68 0.34 1.36 0 0 Z " fill="#4F33CD" transform="translate(119,134)"/>
<path d="M0 0 C-1.75 5.75 -1.75 5.75 -4 8 C-4.66 7.67 -5.32 7.34 -6 7 C-6 4.69 -6 2.38 -6 0 C-2.25 -1.125 -2.25 -1.125 0 0 Z " fill="#891CDF" transform="translate(288,121)"/>
<path d="M0 0 C6.27 0 12.54 0 19 0 C15.27921748 1.86039126 14.38945304 2.22831252 10.5625 2.0625 C7.21439804 1.97962619 4.26668944 2.15698337 1 3 C0.67 2.01 0.34 1.02 0 0 Z " fill="#811CE7" transform="translate(155,48)"/>
<path d="M0 0 C2.0625 0.4375 2.0625 0.4375 4 1 C2.64978174 5.41889613 0.73884332 7.34345343 -3 10 C-3 8.35 -3 6.7 -3 5 C-2.01 4.67 -1.02 4.34 0 4 C-0.33 3.01 -0.66 2.02 -1 1 C-0.67 0.67 -0.34 0.34 0 0 Z " fill="#4C2CD6" transform="translate(212,226)"/>
<path d="M0 0 C-1.423125 0.7115625 -1.423125 0.7115625 -2.875 1.4375 C-5.95225457 3.43336086 -6.6153103 5.2029194 -7.375 8.75 C-7.60744655 10.16291041 -7.82388919 11.57896791 -8 13 C-8.33 13 -8.66 13 -9 13 C-9.125 5.375 -9.125 5.375 -8 2 C-8.66 1.67 -9.32 1.34 -10 1 C-3.375 -1.125 -3.375 -1.125 0 0 Z " fill="#3D22AF" transform="translate(122,115)"/>
<path d="M0 0 C0.99 0.66 1.98 1.32 3 2 C1.8803014 3.00593243 0.7540588 4.0045849 -0.375 5 C-1.00148438 5.556875 -1.62796875 6.11375 -2.2734375 6.6875 C-4 8 -4 8 -6 8 C-6.33 7.01 -6.66 6.02 -7 5 C-5.35 5 -3.7 5 -2 5 C-2 4.01 -2 3.02 -2 2 C-1.34 2 -0.68 2 0 2 C0 1.34 0 0.68 0 0 Z " fill="#4D2AB5" transform="translate(311,288)"/>
<path d="M0 0 C2.64 0.99 5.28 1.98 8 3 C6.25 4.125 6.25 4.125 4 5 C1.75 4.125 1.75 4.125 0 3 C0 3.66 0 4.32 0 5 C-0.66 4.67 -1.32 4.34 -2 4 C-1.34 2.68 -0.68 1.36 0 0 Z " fill="#4D2EEC" transform="translate(234,275)"/>
<path d="M0 0 C1.20628008 2.33214148 2.1654738 4.49642139 3 7 C2.34 7.66 1.68 8.32 1 9 C0.34 9 -0.32 9 -1 9 C-1.33 6.36 -1.66 3.72 -2 1 C-1.34 0.67 -0.68 0.34 0 0 Z " fill="#213EC3" transform="translate(70,259)"/>
<path d="M0 0 C2 2 2 2 2.125 5.125 C2.08375 6.07375 2.0425 7.0225 2 8 C0.68 8 -0.64 8 -2 8 C-2.125 5.125 -2.125 5.125 -2 2 C-1.34 1.34 -0.68 0.68 0 0 Z " fill="#4D2FF0" transform="translate(216,256)"/>
<path d="M0 0 C-0.33 0.99 -0.66 1.98 -1 3 C-2.65 3.33 -4.3 3.66 -6 4 C-6 4.66 -6 5.32 -6 6 C-6.99 6 -7.98 6 -9 6 C-8.00269864 3.5067466 -7.34925469 2.22532561 -5.0625 0.75 C-3 0 -3 0 0 0 Z " fill="#5A2ACC" transform="translate(288,242)"/>
<path d="M0 0 C2 3 2 3 2 7 C0.68 7 -0.64 7 -2 7 C-2.66 8.32 -3.32 9.64 -4 11 C-4.66 10.67 -5.32 10.34 -6 10 C-5.195625 9.0925 -4.39125 8.185 -3.5625 7.25 C-1.58857329 4.89690092 -0.36122533 3.13061954 0 0 Z " fill="#5B25AD" transform="translate(307,213)"/>
<path d="M0 0 C0.33 0 0.66 0 1 0 C1 1.98 1 3.96 1 6 C1.66 6 2.32 6 3 6 C1.9024777 8.99324263 1.32317108 9.84610901 -1.625 11.25 C-2.40875 11.4975 -3.1925 11.745 -4 12 C-3.525625 11.319375 -3.05125 10.63875 -2.5625 9.9375 C-0.7774364 6.58158044 -0.36846914 3.75838519 0 0 Z " fill="#671DA7" transform="translate(281,122)"/>
<path d="M0 0 C1.48484412 0.39595843 2.9628831 0.81750706 4.4375 1.25 C5.26121094 1.48203125 6.08492188 1.7140625 6.93359375 1.953125 C9 3 9 3 9.78515625 5.109375 C9.85605469 5.73328125 9.92695312 6.3571875 10 7 C5.56541027 5.6062718 3.12621626 3.39417765 0 0 Z " fill="#2A3FB6" transform="translate(83,290)"/>
<path d="M0 0 C0 0.66 0 1.32 0 2 C-0.66 2 -1.32 2 -2 2 C-1.67 2.99 -1.34 3.98 -1 5 C-1.99 5.495 -1.99 5.495 -3 6 C-5.125 5.0625 -5.125 5.0625 -7 4 C-6.67 3.01 -6.34 2.02 -6 1 C-3.90006779 0.25486277 -2.22568901 0 0 0 Z " fill="#2246EA" transform="translate(95,288)"/>
<path d="M0 0 C0 0.99 0 1.98 0 3 C-0.99 3.33 -1.98 3.66 -3 4 C-3 4.66 -3 5.32 -3 6 C-4.98 6.66 -6.96 7.32 -9 8 C-3.85714286 1.42857143 -3.85714286 1.42857143 0 0 Z " fill="#4D2BBA" transform="translate(273,255)"/>
<path d="M0 0 C1.65 0 3.3 0 5 0 C4.67 1.65 4.34 3.3 4 5 C2.35 5 0.7 5 -1 5 C-0.67 3.35 -0.34 1.7 0 0 Z " fill="#323BEA" transform="translate(124,249)"/>
<path d="M0 0 C1.32 0 2.64 0 4 0 C3.67 1.65 3.34 3.3 3 5 C2.01 5.33 1.02 5.66 0 6 C-0.33 6.66 -0.66 7.32 -1 8 C-1.66 6.68 -2.32 5.36 -3 4 C-1.68 3.34 -0.36 2.68 1 2 C0.67 1.34 0.34 0.68 0 0 Z " fill="#452FD5" transform="translate(178,224)"/>
<path d="M0 0 C1.32 0.66 2.64 1.32 4 2 C0.535 4.97 0.535 4.97 -3 8 C-3 7.01 -3 6.02 -3 5 C-2.34 5 -1.68 5 -1 5 C-0.67 3.35 -0.34 1.7 0 0 Z " fill="#6629BE" transform="translate(286,203)"/>
<path d="M0 0 C2.31 0 4.62 0 7 0 C7 1.65 7 3.3 7 5 C6.01 5 5.02 5 4 5 C4 4.01 4 3.02 4 2 C2.68 2 1.36 2 0 2 C0 1.34 0 0.68 0 0 Z " fill="#791EE7" transform="translate(302,200)"/>
<path d="M0 0 C-2.39763185 2.39763185 -3.33273498 2.34280586 -6.625 2.625 C-7.44226563 2.69976562 -8.25953125 2.77453125 -9.1015625 2.8515625 C-9.72804688 2.90054688 -10.35453125 2.94953125 -11 3 C-6.7849044 -0.23157329 -5.27490657 -1.24931998 0 0 Z " fill="#541ABB" transform="translate(102,51)"/>
<path d="M0 0 C-2.90092502 1.93395001 -3.89674737 2.30131941 -7.1875 2.625 C-8.445625 2.74875 -9.70375 2.8725 -11 3 C-11 2.01 -11 1.02 -11 0 C-6.94952424 -1.35015859 -4.2079832 -0.62084998 0 0 Z " fill="#4A29B4" transform="translate(299,299)"/>
<path d="M0 0 C0 0.99 0 1.98 0 3 C-2.5654594 5.5654594 -4.47686668 5.54046087 -8 6 C-8 5.34 -8 4.68 -8 4 C-7.01 4 -6.02 4 -5 4 C-5 3.34 -5 2.68 -5 2 C-3.35 1.34 -1.7 0.68 0 0 Z " fill="#4032C8" transform="translate(176,244)"/>
<path d="M0 0 C1.32 0.33 2.64 0.66 4 1 C4 2.32 4 3.64 4 5 C4.99 5.33 5.98 5.66 7 6 C6.01 6.495 6.01 6.495 5 7 C2.5 5.1875 2.5 5.1875 0 3 C0 2.01 0 1.02 0 0 Z " fill="#472AB3" transform="translate(240,245)"/>
<path d="M0 0 C2.45823172 3.68734758 3.01242616 6.69699971 4 11 C3.01 11.33 2.02 11.66 1 12 C0.67 8.04 0.34 4.08 0 0 Z " fill="#831CB0" transform="translate(324,74)"/>
<path d="M0 0 C4.875 1.75 4.875 1.75 6 4 C5.01 4.99 4.02 5.98 3 7 C1.79371992 4.66785852 0.8345262 2.50357861 0 0 Z " fill="#8B1AC9" transform="translate(303,53)"/>
<path d="M0 0 C3.68802044 1.22934015 4.72356973 2.93859378 7 6 C6.01 7.485 6.01 7.485 5 9 C4.16094435 7.87926138 3.32892169 6.75325453 2.5 5.625 C2.0359375 4.99851562 1.571875 4.37203125 1.09375 3.7265625 C0 2 0 2 0 0 Z " fill="#2A46BD" transform="translate(74,278)"/>
<path d="M0 0 C0.66 0 1.32 0 2 0 C2.33 1.98 2.66 3.96 3 6 C2.01 6.33 1.02 6.66 0 7 C-0.66 6.34 -1.32 5.68 -2 5 C-1.34 3.35 -0.68 1.7 0 0 Z " fill="#244AEB" transform="translate(76,272)"/>
<path d="M0 0 C0.66 0.33 1.32 0.66 2 1 C1.3125 2.9375 1.3125 2.9375 0 5 C-2.625 5.75 -2.625 5.75 -5 6 C-3.35 4.02 -1.7 2.04 0 0 Z " fill="#5B25B9" transform="translate(300,224)"/>
<path d="M0 0 C2.33333333 2.33333333 4.66666667 4.66666667 7 7 C3.25 8.125 3.25 8.125 1 7 C0.59270772 4.67843403 0.25561323 2.3431213 0 0 Z " fill="#3530B7" transform="translate(113,186)"/>
<path d="M0 0 C2.64 0 5.28 0 8 0 C7.360625 0.28875 6.72125 0.5775 6.0625 0.875 C3.84793921 1.82823451 3.84793921 1.82823451 3 4 C1.35 3.67 -0.3 3.34 -2 3 C-1.34 2.67 -0.68 2.34 0 2 C0 1.34 0 0.68 0 0 Z " fill="#5F1CD6" transform="translate(105,48)"/>
<path d="M0 0 C1.67542976 0.28604898 3.34385343 0.61781233 5 1 C3.35 2.65 1.7 4.3 0 6 C-0.38218767 4.34385343 -0.71395102 2.67542976 -1 1 C-0.67 0.67 -0.34 0.34 0 0 Z " fill="#542AC5" transform="translate(314,283)"/>
<path d="M0 0 C3.3 0 6.6 0 10 0 C10.33 0.99 10.66 1.98 11 3 C10.37351563 2.9278125 9.74703125 2.855625 9.1015625 2.78125 C8.28429687 2.6884375 7.46703125 2.595625 6.625 2.5 C5.81289062 2.4071875 5.00078125 2.314375 4.1640625 2.21875 C2.03087175 1.96647649 2.03087175 1.96647649 0 2 C0 1.34 0 0.68 0 0 Z " fill="#462AAD" transform="translate(214,229)"/>
<path d="M0 0 C0 1.65 0 3.3 0 5 C-0.99 5.33 -1.98 5.66 -3 6 C-3.33 4.68 -3.66 3.36 -4 2 C-1 0 -1 0 0 0 Z " fill="#632DDF" transform="translate(320,278)"/>
<path d="M0 0 C0.70125 0.474375 1.4025 0.94875 2.125 1.4375 C5.16081337 3.08739857 7.59168786 3.60368464 11 4 C11 4.33 11 4.66 11 5 C3.57142857 5.28571429 3.57142857 5.28571429 0 3 C0 2.01 0 1.02 0 0 Z " fill="#412FA7" transform="translate(237,273)"/>
<path d="M0 0 C0 0.66 0 1.32 0 2 C0.66 2.33 1.32 2.66 2 3 C0.35 3.66 -1.3 4.32 -3 5 C-3.66 3.68 -4.32 2.36 -5 1 C-3 0 -3 0 0 0 Z " fill="#4E2DED" transform="translate(213,251)"/>
<path d="M0 0 C2 3 2 3 2 5 C0.02 5.99 0.02 5.99 -2 7 C-2 3 -2 3 0 0 Z " fill="#451BC2" transform="translate(77,65)"/>
</svg>
